<?xml version="1.0" standalone="no"?>
<!DOCTYPE svg PUBLIC "-//W3C//DTD SVG 20010904//EN"
 "http://www.w3.org/TR/2001/REC-SVG-20010904/DTD/svg10.dtd">
<svg version="1.0" xmlns="http://www.w3.org/2000/svg"
 width="100.000000pt" height="100.000000pt" viewBox="0 0 100.000000 100.000000"
 preserveAspectRatio="xMidYMid meet">

<g transform="translate(0.000000,100.000000) scale(0.100000,-0.100000)"
fill="#000000" stroke="none">
<path d="M405 990 c-179 -39 -315 -158 -378 -329 -29 -80 -29 -243 1 -323 53
-145 165 -257 311 -311 79 -29 243 -29 322 0 146 54 258 166 311 311 16 44 21
80 21 162 0 82 -5 118 -21 162 -53 146 -168 260 -311 310 -64 22 -197 31 -256
18z m165 -335 l5 -150 65 -48 c36 -27 66 -54 68 -61 3 -15 -53 -95 -73 -102
-7 -3 -46 18 -87 47 -130 93 -118 66 -118 274 0 100 3 185 7 189 4 4 34 6 68
4 l60 -3 5 -150z"/>
</g>
</svg>
